# xmcd CD database file
#
# Track frame offsets:
#	150
#	19023
#	60003
#	72927
#	94206
#	122773
#	145067
#	168948
#	187886
#	203452
#	220917
#	236876
#	248227
#
# Disc length: 3509 seconds
#
# Revision: 0
# Processed by: cddbd v1.4PL0 Copyright (c) Steve Scherf et al.
# Submitted via: CDex 1.50Beta7
#
DISCID=ac0db30d
DTITLE=Various Artist - Blues at Kerrville
DYEAR=1999
DGENRE=Blues
TTITLE0=Another Time and Place - Dave Van Ronk
TTITLE1=Sometimes I Feel Myself Slippin' - Clarence ''Gatemouth'' Brown
TTITLE2=Kentucky Blues - Roy Bookbinder
TTITLE3=My Man is a Two-Timer - Marsha Ball
TTITLE4=I Can be Had - Josh White, Jr.
TTITLE5=Telephone Blues - Angela Strehli
TTITLE6=Under Love's Spell - Marcia Ball with Band
TTITLE7=Honey Bee - Tom Ball and Kenny Sultan
TTITLE8=Texas Blues - Mance Lipscomb
TTITLE9=Put Me in the Alley - Robert Shaw
TTITLE10=I've Had the Blues - Juke Boy Bonner
TTITLE11=Midnight Special - ''Spider'' John Koerner
TTITLE12=Mississippi Delta Blues - Kenneth Threadgill
EXTD=YEAR: 1999
EXTT0=
EXTT1=
EXTT2=
EXTT3=
EXTT4=
EXTT5=
EXTT6=
EXTT7=
EXTT8=
EXTT9=
EXTT10=
EXTT11=
EXTT12=
PLAYORDER=
